<svg xmlns="http://www.w3.org/2000/svg" width="16.176" height="16.177" viewBox="0 0 16.176 16.177">
    <defs>
        <style>
            .cls-1{fill:#adb9de}
        </style>
    </defs>
    <g id="그룹_102" data-name="그룹 102">
        <path id="제외_1" d="M15.278 14.559h-.9a.9.9 0 0 1-.9-.9v-.9H2.7v.9a.9.9 0 0 1-.9.9H.9a.9.9 0 0 1-.9-.9V6.471l1.868-5.383A1.344 1.344 0 0 1 3.146.18h2.247V0h5.391v.18h2.248a1.343 1.343 0 0 1 1.276.907l1.868 5.383v7.19a.9.9 0 0 1-.9.9zM13.03 7.37a1.348 1.348 0 1 0 1.348 1.348A1.348 1.348 0 0 0 13.03 7.37zm-9.886 0A1.348 1.348 0 1 0 4.5 8.718 1.348 1.348 0 0 0 3.145 7.37zm0-5.842L1.8 5.572h12.58l-1.349-4.044z" class="cls-1" data-name="제외 1" transform="translate(0 1.618)"/>
        <path id="교차_4" d="M0 1.618V0h5.392v1.618z" class="cls-1" data-name="교차 4" transform="translate(5.392)"/>
    </g>
</svg>
