<svg xmlns="http://www.w3.org/2000/svg" width="21.024" height="21.024" viewBox="0 0 21.024 21.024">
    <defs>
        <style>
            .cls-1{fill:#ADB9DE}
        </style>
    </defs>
    <g id="그룹_95" data-name="그룹 95">
        <path id="빼기_8" d="M-2082.989-4095.381h-12.264a1.754 1.754 0 0 1-1.752-1.752v-12.267a1.754 1.754 0 0 1 1.752-1.752h5.253v1.752h-5.256v12.264h12.264v-5.256h1.752v5.256a1.754 1.754 0 0 1-1.752 1.752zm-1.752-3.5h-1.751v-3.5h1.751v3.5zm-3.5 0H-2090v-7.008h1.752v7.008zm-3.5 0h-1.752v-5.256h1.752v5.256z" class="cls-1" data-name="빼기 8" transform="translate(2099.049 4112.903)"/>
        <path id="패스_86" fill="none" d="M0 0h21.024v21.024H0z" data-name="패스 86"/>
        <path id="교차_1" d="M-2061.293-4107.149v-2.628h-2.628v-1.752h2.628v-2.628h1.752v2.628h2.628v1.752h-2.628v2.628z" class="cls-1" data-name="교차 1" transform="translate(2075.603 4115.909)"/>
    </g>
</svg>
