<svg xmlns="http://www.w3.org/2000/svg" width="22.288" height="22.293" viewBox="0 0 22.288 22.293">
    <defs>
        <style>
            .cls-1{fill:#718594;stroke:#718594}
        </style>
    </defs>
    <g id="Icon_ionic-ios-timer" data-name="Icon ionic-ios-timer" transform="translate(-3.438 -3.438)">
        <path id="패스_243" d="M14.584 25.231A10.647 10.647 0 0 1 7.2 6.919a.855.855 0 0 1 1.187 1.23 8.935 8.935 0 1 0 15.134 6.436 8.635 8.635 0 0 0-7.71-8.9v-.234c0 .474-1.593-.041-1.725-.129s-.36-.054-.36-.528a.857.857 0 0 1 .857-.857 10.647 10.647 0 0 1 .005 21.293z" class="cls-1" data-name="패스 243"/>
        <path id="패스_244" d="M12.1 11.352l5.3 3.806a1.6 1.6 0 0 1-1.863 2.608 1.548 1.548 0 0 1-.373-.373l-3.806-5.3a.534.534 0 0 1 .745-.745z" class="cls-1" data-name="패스 244" transform="translate(-1.777 -1.777)"/>
    </g>
</svg>
