<svg xmlns="http://www.w3.org/2000/svg" width="29.252" height="21.611" viewBox="0 0 29.252 21.611">
    <defs>
        <style>
            .cls-1{fill:#718594}
        </style>
    </defs>
    <g id="그룹_72" data-name="그룹 72" transform="translate(-813.1 -1010.9)">
        <path id="패스_162" d="M39.9 88.3v1.969c0 .938 2.719 2.3 6.938 2.3s6.938-1.359 6.938-2.3V88.3a13.934 13.934 0 0 1-6.938 1.594A13.934 13.934 0 0 1 39.9 88.3z" class="cls-1" data-name="패스 162" transform="translate(788.576 939.945)"/>
        <path id="패스_163" d="M39.9 79.3v1.969c0 .938 2.719 2.3 6.938 2.3s6.938-1.359 6.938-2.3V79.3a13.934 13.934 0 0 1-6.938 1.594A14.454 14.454 0 0 1 39.9 79.3z" class="cls-1" data-name="패스 163" transform="translate(788.576 944.726)"/>
        <path id="패스_164" d="M46.838 69.5c-4.219 0-6.938 1.359-6.938 2.3s2.719 2.3 6.938 2.3 6.938-1.359 6.938-2.3c-.047-.941-2.719-2.3-6.938-2.3z" class="cls-1" data-name="패스 164" transform="translate(788.576 949.932)"/>
        <path id="패스_165" d="M7.1 88.3v1.969c0 .938 2.719 2.3 6.938 2.3s6.938-1.359 6.938-2.3V88.3a13.934 13.934 0 0 1-6.938 1.594A13.934 13.934 0 0 1 7.1 88.3z" class="cls-1" data-name="패스 165" transform="translate(806 939.945)"/>
        <path id="패스_166" d="M7.1 79.3v1.969c0 .938 2.719 2.3 6.938 2.3s6.938-1.359 6.938-2.3V79.3a13.934 13.934 0 0 1-6.938 1.594A14.454 14.454 0 0 1 7.1 79.3z" class="cls-1" data-name="패스 166" transform="translate(806 944.726)"/>
        <path id="패스_167" d="M7.1 70.2v1.969c0 .938 2.719 2.3 6.938 2.3s6.938-1.359 6.938-2.3V70.2a13.934 13.934 0 0 1-6.938 1.594A14.454 14.454 0 0 1 7.1 70.2z" class="cls-1" data-name="패스 167" transform="translate(806 949.56)"/>
        <path id="패스_168" d="M7.1 61.1v1.969c0 .938 2.719 2.3 6.938 2.3s6.938-1.359 6.938-2.3V61.1a13.934 13.934 0 0 1-6.938 1.594A14.454 14.454 0 0 1 7.1 61.1z" class="cls-1" data-name="패스 168" transform="translate(806 954.394)"/>
        <path id="패스_169" d="M14.038 51.3c-4.219 0-6.938 1.359-6.938 2.3s2.719 2.3 6.938 2.3 6.938-1.359 6.938-2.3c-.047-.941-2.719-2.3-6.938-2.3z" class="cls-1" data-name="패스 169" transform="translate(806 959.6)"/>
    </g>
</svg>
