<svg xmlns="http://www.w3.org/2000/svg" id="local_taxi-black-18dp" width="29" height="29" viewBox="0 0 29 29">
    <path id="패스_90" fill="none" d="M0 0h29v29H0z" data-name="패스 90"/>
    <path id="패스_91" fill="#718594" d="M22.237 6.637a1.805 1.805 0 0 0-1.716-1.22H17.5V3h-7.25v2.417H7.229a1.817 1.817 0 0 0-1.716 1.22L3 13.875v9.667a1.212 1.212 0 0 0 1.208 1.208h1.209a1.212 1.212 0 0 0 1.208-1.208v-1.209h14.5v1.208a1.212 1.212 0 0 0 1.208 1.208h1.208a1.212 1.212 0 0 0 1.208-1.208v-9.666zM7.229 18.708A1.812 1.812 0 1 1 9.042 16.9a1.81 1.81 0 0 1-1.813 1.808zm13.292 0a1.812 1.812 0 1 1 1.812-1.808 1.81 1.81 0 0 1-1.812 1.808zm-15.1-6.042l1.808-5.437h13.292l1.813 5.437z" data-name="패스 91" transform="translate(.625 .625)"/>
</svg>
