<svg xmlns="http://www.w3.org/2000/svg" id="group-black-18dp" width="32.503" height="32.503" viewBox="0 0 32.503 32.503">
    <path id="패스_94" fill="none" d="M0 0h32.5v32.5H0z" data-name="패스 94"/>
    <path id="패스_95" fill="#718594" d="M21.314 13.126a4.063 4.063 0 1 0-4.063-4.063 4.046 4.046 0 0 0 4.063 4.063zm-10.834 0a4.063 4.063 0 1 0-4.063-4.063 4.046 4.046 0 0 0 4.063 4.063zm0 2.709c-3.155 0-9.48 1.585-9.48 4.74v3.385h18.96v-3.386c0-3.155-6.324-4.74-9.48-4.74zm10.834 0c-.393 0-.84.027-1.314.068a5.715 5.715 0 0 1 2.668 4.672v3.385h8.126v-3.386c0-3.155-6.324-4.74-9.48-4.74z" data-name="패스 95" transform="translate(.354 1.771)"/>
</svg>
