<svg xmlns="http://www.w3.org/2000/svg" id="settings-black-18dp" width="23.421" height="23.421" viewBox="0 0 23.421 23.421">
    <path id="패스_155" fill="none" d="M0 0h23.421v23.421H0z" data-name="패스 155"/>
    <path id="패스_156" fill="#adb9de" d="M18.742 12.686a6.9 6.9 0 0 0 .059-.917 5.637 5.637 0 0 0-.067-.917l1.981-1.542a.479.479 0 0 0 .117-.6l-1.874-3.24a.477.477 0 0 0-.577-.214l-2.333.944a6.894 6.894 0 0 0-1.581-.917L14.116 2.8a.471.471 0 0 0-.468-.4H9.9a.462.462 0 0 0-.459.4L9.09 5.279a7.046 7.046 0 0 0-1.581.921l-2.332-.94a.466.466 0 0 0-.576.215l-1.863 3.24a.444.444 0 0 0 .117.6l1.981 1.542a5.429 5.429 0 0 0-.02 1.835l-1.981 1.535a.479.479 0 0 0-.117.6l1.874 3.24a.477.477 0 0 0 .576.215l2.332-.943a6.894 6.894 0 0 0 1.581.917l.351 2.481a.48.48 0 0 0 .468.4h3.747a.455.455 0 0 0 .459-.4l.351-2.479a6.693 6.693 0 0 0 1.581-.917l2.332.937a.466.466 0 0 0 .576-.215l1.873-3.241a.452.452 0 0 0-.117-.6zm-6.968 2.6a3.513 3.513 0 1 1 3.513-3.513 3.513 3.513 0 0 1-3.513 3.508z" data-name="패스 156" transform="translate(-.064 -.058)"/>
</svg>
