<svg xmlns="http://www.w3.org/2000/svg" width="29.477" height="23.409" viewBox="0 0 29.477 23.409">
    <defs>
        <style>
            .cls-1{fill:none}.cls-2{fill:#718594}
        </style>
    </defs>
    <g id="그룹_130" data-name="그룹 130" transform="translate(-1227 -787.318)">
        <g id="settings-black-18dp" transform="translate(1227 787.318)">
            <path id="패스_155" d="M0 0h21.373v21.373H0z" class="cls-1" data-name="패스 155"/>
            <path id="패스_156" d="M17.336 11.786a6.3 6.3 0 0 0 .053-.837 5.144 5.144 0 0 0-.061-.837l1.808-1.407a.437.437 0 0 0 .107-.543l-1.71-2.957a.435.435 0 0 0-.526-.2l-2.128.855a6.291 6.291 0 0 0-1.443-.837l-.32-2.263a.43.43 0 0 0-.427-.365H9.267a.422.422 0 0 0-.419.365l-.32 2.267a6.43 6.43 0 0 0-1.443.837L4.957 5.01a.425.425 0 0 0-.525.2l-1.7 2.957a.405.405 0 0 0 .107.543l1.808 1.407a4.954 4.954 0 0 0-.018 1.674L2.82 13.193a.437.437 0 0 0-.107.543l1.71 2.957a.435.435 0 0 0 .525.2l2.128-.856a6.291 6.291 0 0 0 1.443.837l.32 2.264a.438.438 0 0 0 .427.365h3.42a.415.415 0 0 0 .419-.365l.321-2.262a6.108 6.108 0 0 0 1.443-.837L17 16.89a.425.425 0 0 0 .525-.2l1.709-2.958a.412.412 0 0 0-.107-.543zm-6.358 2.369a3.206 3.206 0 1 1 3.206-3.206 3.206 3.206 0 0 1-3.207 3.206z" class="cls-2" data-name="패스 156" transform="translate(-.291 -.263)"/>
        </g>
        <g id="settings-black-18dp-2" data-name="settings-black-18dp" transform="translate(1244.346 798.596)">
            <path id="패스_155-2" d="M0 0h12.131v12.131H0z" class="cls-1" data-name="패스 155"/>
            <path id="패스_156-2" d="M10.993 7.725a3.575 3.575 0 0 0 .031-.475 2.92 2.92 0 0 0-.035-.475l1.026-.8a.248.248 0 0 0 .061-.307L11.1 3.99a.246.246 0 0 0-.3-.111l-1.2.484a3.571 3.571 0 0 0-.819-.475L8.6 2.6a.246.246 0 0 0-.246-.2H6.413a.24.24 0 0 0-.238.207l-.182 1.281a3.649 3.649 0 0 0-.819.475l-1.207-.484a.241.241 0 0 0-.3.111L2.7 5.668a.23.23 0 0 0 .061.307l1.026.8a2.812 2.812 0 0 0-.01.952l-1.026.8a.248.248 0 0 0-.061.307l.971 1.678a.246.246 0 0 0 .3.111l1.208-.485a3.571 3.571 0 0 0 .819.477l.183 1.285a.248.248 0 0 0 .243.207h1.94a.236.236 0 0 0 .238-.207l.182-1.284a3.467 3.467 0 0 0 .819-.476l1.208.485a.241.241 0 0 0 .3-.111l.971-1.678a.234.234 0 0 0-.061-.307zM7.384 9.07A1.82 1.82 0 1 1 9.2 7.249 1.82 1.82 0 0 1 7.384 9.07z" class="cls-2" data-name="패스 156" transform="translate(-1.318 -1.185)"/>
        </g>
    </g>
</svg>
