<svg xmlns="http://www.w3.org/2000/svg" id="local_taxi-black-18dp" width="30" height="30" viewBox="0 0 30 30">
    <path id="패스_90" fill="none" d="M0 0h30v30H0z" data-name="패스 90"/>
    <path id="패스_91" fill="#bbb" d="M17.593 5.759a1.37 1.37 0 0 0-1.3-.926H14V3H8.5v1.833H6.208a1.378 1.378 0 0 0-1.3.926L3 11.25v7.333a.919.919 0 0 0 .917.917h.917a.919.919 0 0 0 .917-.917v-.917h11v.917a.919.919 0 0 0 .917.917h.917a.919.919 0 0 0 .917-.917V11.25zM6.208 14.917a1.375 1.375 0 1 1 1.375-1.375 1.373 1.373 0 0 1-1.375 1.375zm10.083 0a1.375 1.375 0 1 1 1.375-1.375 1.373 1.373 0 0 1-1.374 1.375zM4.833 10.333l1.375-4.125h10.084l1.375 4.125z" data-name="패스 91" transform="translate(3.75 3.75)"/>
</svg>
