<svg xmlns="http://www.w3.org/2000/svg" id="그룹_101" width="18.042" height="18.168" data-name="그룹 101" viewBox="0 0 18.042 18.168">
    <defs>
        <style>
            .cls-1{fill:#adb9de}
        </style>
    </defs>
    <path id="교차_2" d="M-2081.17-4105.659l.956-.956 1.921 1.921 4.448-4.465.957.956-5.413 5.413z" class="cls-1" data-name="교차 2" transform="translate(2086.051 4115.868)"/>
    <path id="빼기_9" d="M-2087.982-4113.83a8.086 8.086 0 0 1-3.164-.638 8.075 8.075 0 0 1-2.58-1.741 8.082 8.082 0 0 1-1.739-2.58 8.092 8.092 0 0 1-.637-3.161 8.066 8.066 0 0 1 .639-3.16 8.087 8.087 0 0 1 1.74-2.581 8.091 8.091 0 0 1 2.581-1.74 8.092 8.092 0 0 1 3.16-.639 8.1 8.1 0 0 1 3.16.639 8.091 8.091 0 0 1 2.581 1.74 8.1 8.1 0 0 1 1.74 2.581 8.07 8.07 0 0 1 .638 3.16 8.067 8.067 0 0 1-.638 3.161 8.091 8.091 0 0 1-1.74 2.581 8.089 8.089 0 0 1-2.581 1.741 8.087 8.087 0 0 1-3.16.637zm0-14.434a6.322 6.322 0 0 0-6.315 6.314 6.323 6.323 0 0 0 6.315 6.315 6.323 6.323 0 0 0 6.315-6.315 6.322 6.322 0 0 0-6.315-6.315zm7.857 1.128l-4.15-3.482 1.164-1.38 4.149 3.482-1.163 1.38zm-15.716-.009l-1.163-1.38 4.15-3.473 1.155 1.38-4.141 3.473z" class="cls-1" data-name="빼기 9" transform="translate(2097.003 4131.998)"/>
</svg>
